David Gilmour - In Concert movie was released Nov 05, 2002 by the EMI Video studio. This DVD was filmed live at his Meltdown Festival concert in London's Royal Festival hall in June 2001, with additional footage from David Gilmour's three concerts at the same venue in January 2002. David Gilmour - In Concert movie It also includes guest appearances from Rock Wright, Robert Wyatt and Sir Bob Geldof and includes 16 songs. 

Drawing on footage from four concerts at London's Royal Festival Hall (one from June 2001, three from January 2002), this footage features David Gilmour performing material that spans his entire career. Beginning with Pink Floyd's "Shine On You Crazy Diamond," we subsequently find Gilmour interpreting two Syd Barrett songs ("Terrapin" and "Dominoes"), a performance from Bizet's opera "The Pearl Fishers," a few more Floyd tunes, and a selection of solo Gilmour delights. Rick Wright, Robert Wyatt and Bob Geldof make surprise appearances, and the whole performance is cemented by a stunning gospel choir lead by Sam Brown. 

Tracklist: 
#1- Shine On You Crazy Diamond 
#2- Terrapin 
#3- Fat Old Sun 
#4- Coming Back To Life 
#5- High Hope 
#6- Je Crois Entendre Encore 
#7- Smile 
#8- Wish You Were Here 
#9- Comfortably Numb ΓÇô Vocals: Robert Wyatt 
#10- Dimming Of The Day 
#11- Shine On You Crazy Diamond 
#12- A Great Day For Freedom 
#13- Hushabye Mountain 
#14- Dominoes 
#15- Breakthrough ΓÇô Keyboards: Richard Wright 
#16- Comfortably Numb ΓÇô Vocals: Bob Geldof 

INFO: 
Format : MPEG-4
Format profile : Base Media / Version 2
Codec ID : mp42
File size : 863 MiB
Duration : 1h 31mn
Overall bit rate mode : Variable
Overall bit rate : 1 324 Kbps
Encoded date : UTC 2012-10-15 21:07:24
Tagged date : UTC 2012-10-15 22:45:41

Video
ID : 1
Format : AVC
Format/Info : Advanced Video Codec
Format profile : Main@L3.0
Format settings, CABAC : Yes
Format settings, ReFrames : 2 frames
Codec ID : avc1
Codec ID/Info : Advanced Video Coding
Duration : 1h 31mn
Bit rate mode : Variable
Bit rate : 1 242 Kbps
Maximum bit rate : 4 707 Kbps
Width : 720 pixels
Height : 480 pixels
Display aspect ratio : 16:9
Frame rate mode : Constant
Frame rate : 29.970 fps
Standard : NTSC
Color space : YUV
Chroma subsampling : 4:2:0
Bit depth : 8 bits
Scan type : Progressive
Bits/(Pixel*Frame) : 0.120
Stream size : 809 MiB (94%)
Language : English
Encoded date : UTC 2012-10-15 21:07:26
Tagged date : UTC 2012-10-15 22:45:41

Audio
ID : 2
Format : AAC
Format/Info : Advanced Audio Codec
Format profile : LC
Codec ID : 40
Duration : 1h 31mn
Bit rate mode : Variable
Bit rate : 77.7 Kbps
Maximum bit rate : 86.3 Kbps
Channel(s) : 2 channels
Channel positions : Front: L R
Sampling rate : 48.0 KHz
Compression mode : Lossy
Stream size : 50.6 MiB (6%)
Title : English
Language : English
Encoded date : UTC 2012-10-15 21:07:26
Tagged date : UTC 2012-10-15 22:45:41

IMDb- http://www.imdb.com/title/tt0358437/ 
SIZE: 863MB